<?xml version="1.0" standalone="no"?>
<!DOCTYPE svg PUBLIC "-//W3C//DTD SVG 20010904//EN"
 "http://www.w3.org/TR/2001/REC-SVG-20010904/DTD/svg10.dtd">
<svg version="1.0" xmlns="http://www.w3.org/2000/svg"
 width="700.000000pt" height="700.000000pt" viewBox="0 0 700.000000 700.000000"
 preserveAspectRatio="xMidYMid meet">
<metadata>
Created by potrace 1.11, written by Peter Selinger 2001-2013
</metadata>
<g transform="translate(0.000000,700.000000) scale(0.100000,-0.100000)"
fill="#000000" stroke="none">
<path d="M3489 6969 c0 -8 -2 -21 -4 -29 -1 -8 -8 -44 -14 -80 -7 -36 -23
-117 -37 -180 -14 -63 -27 -122 -29 -130 -3 -13 -56 -206 -72 -262 -6 -21 -14
-23 -31 -6 -9 9 -12 5 -13 -18 0 -16 -2 -38 -4 -49 -2 -11 -6 -38 -9 -60 -2
-22 -12 -66 -21 -98 -18 -63 -22 -64 -87 -31 -15 8 -29 14 -32 14 -5 0 -1 -56
9 -156 10 -99 6 -150 -19 -233 -14 -46 -27 -85 -28 -87 -2 -1 -26 8 -53 21
-28 13 -53 24 -57 24 -6 1 -4 -36 7 -139 10 -94 19 -196 19 -230 0 -40 -11
-117 -19 -129 -2 -5 -38 9 -79 31 -72 37 -75 38 -71 16 3 -13 12 -57 20 -98 8
-41 17 -86 20 -100 3 -14 7 -36 10 -50 3 -14 7 -34 9 -45 2 -11 11 -54 19 -95
11 -50 14 -101 10 -155 -3 -44 -6 -81 -7 -82 -1 -1 -35 20 -76 47 -41 28 -78
50 -82 50 -3 0 18 -96 49 -212 30 -117 56 -220 58 -228 2 -8 17 -69 34 -136
17 -67 33 -146 36 -177 l5 -56 -42 19 c-24 10 -67 28 -96 39 l-52 21 59 -118
c125 -250 153 -314 146 -341 -7 -26 -7 -26 -31 14 -24 38 -45 80 -104 210 -15
33 -44 96 -65 140 -76 163 -95 206 -95 216 0 25 -18 -5 -30 -48 -21 -83 -18
-81 -52 -43 -58 66 -76 96 -161 262 l-84 166 -23 -54 c-13 -30 -26 -54 -30
-54 -17 0 -95 99 -165 209 l-79 124 -20 -41 -19 -41 -36 27 c-67 49 -101 86
-163 179 -33 51 -65 90 -69 88 -4 -3 -10 -19 -14 -35 -6 -26 -9 -29 -27 -19
-11 6 -53 42 -93 81 -41 38 -79 67 -84 64 -14 -9 -240 182 -388 327 l-62 60
86 -168 c112 -219 177 -375 158 -375 -10 0 -5 -13 16 -44 30 -45 79 -148 79
-166 0 -6 -16 -10 -35 -10 -41 0 -43 -6 -12 -40 88 -98 129 -154 158 -218 17
-40 30 -74 28 -76 -2 -3 -20 -6 -39 -8 -19 -3 -35 -9 -35 -15 0 -6 20 -33 45
-60 109 -119 156 -177 177 -215 13 -23 21 -43 20 -45 -4 -4 -64 -11 -97 -12
-22 -1 -17 -9 50 -72 41 -38 106 -98 144 -132 57 -51 111 -118 149 -183 5 -9
-13 -10 -63 -7 -39 2 -70 2 -70 -1 0 -2 91 -83 203 -178 111 -95 225 -195 252
-222 l50 -50 -50 -11 c-59 -13 -35 -26 -277 142 -97 68 -179 123 -182 123 -3
0 3 -23 13 -50 l19 -51 -21 7 c-54 16 -133 59 -267 147 -80 52 -146 94 -147
93 -1 -1 2 -19 7 -41 5 -22 7 -41 5 -44 -11 -10 -88 23 -209 89 -70 38 -130
70 -133 70 -3 0 -3 -14 -1 -31 5 -30 4 -31 -26 -24 -17 3 -42 9 -55 11 -27 5
-120 43 -136 55 -5 4 -36 21 -68 38 l-57 31 5 -30 c7 -38 2 -38 -111 -1 -49
17 -91 25 -92 20 -2 -5 -9 -6 -15 -2 -6 3 -27 9 -46 13 -84 17 -415 114 -443
130 -10 6 -18 6 -18 2 0 -5 12 -14 27 -21 31 -14 299 -193 366 -244 25 -19 44
-37 41 -40 -3 -3 28 -26 69 -51 41 -26 82 -55 91 -65 17 -18 16 -20 -3 -26
-12 -3 -21 -10 -21 -14 0 -4 42 -24 93 -45 86 -35 216 -112 217 -128 0 -4 -12
-15 -26 -24 l-26 -17 138 -54 c76 -30 158 -66 181 -81 l43 -27 -48 -21 -47
-21 115 -36 c220 -69 237 -75 301 -108 l64 -32 -54 -17 c-63 -19 -59 -24 38
-51 36 -10 107 -29 156 -42 170 -47 310 -89 333 -101 23 -12 23 -13 -22 -36
-59 -32 -58 -33 49 -45 28 -3 61 -8 75 -10 14 -2 50 -7 80 -11 94 -11 114 -13
145 -20 44 -9 45 -11 29 -50 -8 -19 -12 -38 -10 -43 3 -4 23 -7 45 -7 22 1 37
-2 33 -6 -5 -5 -103 -9 -220 -11 -117 -1 -212 -5 -212 -10 0 -4 11 -12 25 -19
13 -6 22 -14 20 -19 -9 -13 -126 -26 -267 -30 -55 -1 -78 -6 -78 -14 0 -7 7
-16 16 -19 8 -3 13 -10 10 -15 -8 -13 -157 -37 -245 -40 -33 -1 -34 -2 -17
-20 17 -19 17 -20 -16 -34 -49 -21 -66 -25 -128 -32 -46 -5 -69 -8 -99 -14 -2
-1 2 -8 9 -16 10 -12 7 -17 -16 -26 -16 -6 -50 -15 -76 -21 -26 -6 -45 -14
-43 -18 4 -7 -316 -115 -359 -122 -11 -2 104 -3 255 -3 255 0 274 -1 273 -17
-2 -21 14 -22 81 -5 28 8 81 15 118 16 66 2 68 2 57 -18 -14 -27 -7 -27 107 0
96 23 163 31 163 20 0 -3 -7 -17 -16 -30 -16 -22 -16 -23 2 -18 11 3 64 19
119 35 104 32 138 40 192 46 l33 5 -26 -34 -26 -34 191 64 c104 35 204 66 222
70 33 8 35 3 15 -46 -4 -9 47 11 130 53 76 38 142 67 148 65 6 -2 12 -13 14
-25 2 -12 8 -22 14 -22 5 0 60 30 121 67 98 59 221 115 285 130 21 5 22 2 23
-48 0 -30 2 -72 4 -94 1 -22 5 -83 9 -135 4 -52 9 -113 11 -135 2 -22 7 -78
10 -125 7 -99 14 -183 20 -225 2 -16 6 -57 10 -90 3 -33 8 -73 10 -90 2 -16 7
-55 10 -85 11 -104 1 -95 100 -98 l88 -3 -7 203 c-4 112 -9 248 -11 303 -2 55
-6 183 -10 285 -11 306 -12 391 -6 394 3 2 40 -9 81 -25 41 -16 80 -29 86 -29
6 0 60 -27 119 -60 59 -33 110 -60 113 -60 3 0 14 -8 24 -17 17 -15 20 -15 28
-3 6 8 10 23 10 32 0 22 25 15 174 -56 66 -31 120 -55 122 -53 2 2 -3 16 -12
31 -8 16 -13 30 -12 31 2 2 32 -5 68 -14 59 -16 121 -35 304 -92 33 -11 62
-17 64 -14 3 3 -5 17 -19 31 l-24 26 56 -6 c31 -4 87 -16 125 -27 38 -11 87
-24 110 -29 22 -5 49 -13 60 -17 18 -7 18 -6 1 20 -9 14 -17 29 -17 32 0 7 81
-2 173 -20 45 -10 87 -18 92 -19 6 0 9 9 7 22 -3 23 -1 23 65 21 37 -1 82 -6
98 -10 17 -4 45 -10 63 -13 30 -5 33 -4 27 15 -8 23 -45 21 348 23 166 1 194
3 169 13 -17 7 -42 14 -56 17 -34 6 -39 8 -178 51 -65 20 -118 39 -118 43 0 5
-34 16 -75 27 -72 18 -74 19 -58 37 15 17 15 18 -13 18 -75 1 -229 34 -240 51
-3 5 -1 9 4 9 14 0 22 27 9 27 -76 4 -200 17 -231 25 l-38 9 23 25 22 24 -99
1 c-130 1 -216 7 -244 17 -22 8 -22 9 11 30 l34 22 -116 0 c-108 0 -117 1
-122 20 -3 11 -2 20 1 20 6 0 92 12 177 24 17 3 57 8 90 12 33 4 85 10 115 13
l55 7 -48 31 -47 31 41 16 c23 10 139 44 258 77 119 33 235 65 259 71 23 7 42
15 42 18 0 3 -20 11 -45 18 -25 7 -45 16 -45 21 0 10 107 62 160 79 19 6 96
30 170 53 l135 43 -45 19 -44 20 29 23 c17 13 97 51 180 83 l150 59 -31 18
-31 18 26 21 c60 49 100 71 200 111 102 41 104 43 78 55 -15 7 -27 15 -27 18
0 6 84 63 153 105 16 10 26 20 23 23 -7 7 146 118 301 218 68 43 122 80 120
81 -1 1 -59 -15 -128 -36 -237 -73 -381 -109 -375 -93 4 10 1 11 -12 5 -26
-14 -132 -49 -169 -57 -32 -6 -33 -6 -27 24 l6 30 -107 -55 c-58 -31 -120 -58
-137 -61 -16 -2 -46 -10 -67 -18 l-37 -13 4 34 c2 19 2 34 -1 34 -3 0 -59 -29
-124 -65 -110 -61 -209 -103 -218 -93 -3 2 0 19 5 38 5 19 8 36 5 38 -5 5 -46
-20 -170 -101 -125 -83 -255 -148 -255 -128 0 5 7 27 15 50 8 22 12 41 9 41
-5 0 -62 -39 -311 -212 -53 -37 -99 -66 -102 -64 -3 2 -24 7 -45 10 -22 4 -42
9 -45 12 -6 6 67 77 158 154 30 25 59 50 65 55 6 6 56 48 111 95 55 47 109 93
119 102 11 10 23 18 27 18 4 0 10 7 13 16 5 13 -2 15 -42 14 -100 -4 -97 -7
-55 53 37 53 92 109 246 250 48 44 86 81 85 83 -2 1 -28 5 -58 9 -30 4 -56 8
-57 9 -2 1 7 21 20 43 23 44 34 57 158 194 72 80 77 87 56 93 -12 3 -33 6 -46
6 -18 0 -22 4 -16 18 4 9 16 41 27 71 18 46 72 120 155 211 31 34 29 40 -12
40 -19 0 -35 4 -35 9 0 17 43 106 76 158 25 39 29 53 19 55 -18 4 61 187 174
403 l73 140 -69 -66 c-121 -116 -250 -230 -350 -308 -32 -24 -43 -29 -43 -17
0 9 -17 -2 -42 -30 -23 -25 -63 -63 -89 -85 l-48 -40 -19 36 c-20 41 -24 39
-61 -28 -42 -75 -101 -146 -159 -191 l-59 -45 -19 41 -20 41 -79 -124 c-71
-112 -148 -209 -166 -209 -4 0 -15 23 -25 50 -10 28 -21 50 -24 50 -4 0 -45
-74 -91 -165 -87 -171 -175 -297 -190 -273 -5 7 -14 37 -20 66 -7 29 -16 49
-20 45 -4 -4 -34 -66 -67 -138 -33 -71 -83 -179 -111 -239 -28 -59 -51 -111
-51 -115 0 -3 -15 -30 -34 -59 l-33 -54 -12 30 c-12 27 -6 41 89 232 55 112
99 206 98 210 -2 5 -43 -9 -92 -30 l-88 -39 6 62 c3 34 13 89 22 122 8 33 48
189 89 347 l73 287 -42 -27 c-22 -15 -59 -40 -81 -55 l-40 -29 -5 44 c-11 88
-2 177 34 348 21 96 40 189 42 205 3 17 7 36 9 42 2 7 -30 -5 -73 -27 l-77
-39 -12 52 c-11 45 -10 164 2 226 1 9 6 56 10 104 3 48 8 97 10 108 5 24 7 24
-60 -6 -40 -17 -57 -21 -60 -12 -22 63 -53 194 -50 211 2 11 6 66 10 121 4 55
9 108 10 117 5 22 -8 23 -38 4 -47 -30 -62 -28 -74 6 -19 55 -32 110 -38 168
-8 78 -14 93 -29 80 -10 -8 -19 11 -41 87 -15 54 -31 109 -35 123 -17 53 -86
370 -96 440 -6 46 -13 65 -15 39z"/>
</g>
</svg>
